<svg xmlns="http://www.w3.org/2000/svg" xmlns:xlink="http://www.w3.org/1999/xlink" width="600" zoomAndPan="magnify" viewBox="0 0 450 149.999998" height="200" preserveAspectRatio="xMidYMid meet" version="1.0"><defs><filter x="0%" y="0%" width="100%" height="100%" id="id1"><feColorMatrix values="0 0 0 0 1 0 0 0 0 1 0 0 0 0 1 0 0 0 1 0" color-interpolation-filters="sRGB"/></filter><g/><clipPath id="id2"><path d="M 8.355469 49.761719 L 90 49.761719 L 90 111.261719 L 8.355469 111.261719 Z M 8.355469 49.761719 " clip-rule="nonzero"/></clipPath><mask id="id3"><g filter="url(#id1)"><rect x="-45" width="540" fill="rgb(0%, 0%, 0%)" y="-15" height="179.999997" fill-opacity="0.749"/></g></mask><clipPath id="id4"><path d="M 0.398438 3 L 82 3 L 82 20 L 0.398438 20 Z M 0.398438 3 " clip-rule="nonzero"/></clipPath><clipPath id="id5"><path d="M 0.398438 3 L 82 3 L 82 21 L 0.398438 21 Z M 0.398438 3 " clip-rule="nonzero"/></clipPath><clipPath id="id6"><path d="M 39 39 L 43 39 L 43 62.261719 L 39 62.261719 Z M 39 39 " clip-rule="nonzero"/></clipPath><clipPath id="id7"><path d="M 36 0.761719 L 46 0.761719 L 46 9 L 36 9 Z M 36 0.761719 " clip-rule="nonzero"/></clipPath><clipPath id="id8"><rect x="0" width="82" y="0" height="63"/></clipPath></defs><path fill="rgb(100%, 100%, 100%)" d="M 49.636719 122.511719 C 36.941406 122.511719 24.988281 117.570312 16.015625 108.582031 C 7.027344 99.609375 2.085938 87.65625 2.085938 74.960938 C 2.085938 62.265625 7.027344 50.3125 16.015625 41.34375 C 24.988281 32.351562 36.941406 27.414062 49.636719 27.414062 C 62.332031 27.414062 74.285156 32.351562 83.253906 41.34375 C 92.246094 50.332031 97.1875 62.265625 97.1875 74.960938 C 97.1875 87.65625 92.246094 99.609375 83.253906 108.582031 C 74.285156 117.570312 62.332031 122.511719 49.636719 122.511719 Z M 49.636719 30.261719 C 37.703125 30.261719 26.46875 34.917969 18.03125 43.355469 C 9.59375 51.796875 4.9375 63.027344 4.9375 74.960938 C 4.9375 86.898438 9.59375 98.128906 18.03125 106.566406 C 26.46875 115.003906 37.703125 119.660156 49.636719 119.660156 C 61.570312 119.660156 72.804688 115.003906 81.242188 106.566406 C 89.679688 98.128906 94.335938 86.898438 94.335938 74.960938 C 94.335938 63.027344 89.679688 51.796875 81.242188 43.355469 C 72.804688 34.917969 61.570312 30.261719 49.636719 30.261719 Z M 49.636719 30.261719 " fill-opacity="1" fill-rule="nonzero"/><g clip-path="url(#id2)"><g mask="url(#id3)"><g transform="matrix(1, 0, 0, 1, 8, 49)"><g clip-path="url(#id8)"><path fill="rgb(100%, 100%, 100%)" d="M 60.3125 13.519531 C 59.570312 10.828125 58.828125 8.136719 58.089844 5.445312 C 57.953125 4.953125 57.816406 4.460938 57.683594 3.96875 C 57.578125 3.589844 57.03125 3.546875 56.660156 3.347656 C 55.6875 2.835938 54.339844 2.210938 53.203125 2.210938 C 52.207031 2.210938 50.933594 3.492188 50.199219 4.03125 C 49.195312 4.769531 48.703125 5.902344 48.398438 6.984375 C 48.097656 8.039062 48.863281 9.074219 48.320312 10.179688 C 47.804688 11.230469 46.53125 12.023438 45.347656 12.414062 C 42.78125 13.257812 40.066406 13.300781 37.5 12.390625 C 36.378906 11.992188 35.109375 11.375 34.457031 10.4375 C 33.753906 9.425781 34.105469 8.234375 34.105469 7.125 C 34.105469 5.941406 33.464844 4.992188 32.628906 4.109375 C 32.296875 3.761719 31.710938 3.316406 31.296875 3.035156 C 31.035156 2.855469 29.921875 2.109375 29.660156 2.109375 C 28.390625 2.109375 27.183594 2.53125 26.09375 3.105469 C 25.933594 3.191406 24.988281 3.621094 24.964844 3.710938 C 24.851562 4.160156 24.734375 4.613281 24.617188 5.066406 C 24.183594 6.753906 23.75 8.445312 23.3125 10.136719 C 23.132812 10.839844 22.953125 11.542969 22.773438 12.246094 C 22.722656 12.441406 22.445312 13.015625 22.523438 13.210938 C 22.625 13.460938 23.386719 13.816406 23.613281 13.976562 C 24.4375 14.550781 25.261719 15.125 26.082031 15.703125 C 26.582031 16.050781 27.722656 17.222656 28.398438 17.222656 C 34.976562 17.199219 41.550781 17.175781 48.128906 17.152344 C 50.988281 17.140625 53.84375 17.132812 56.703125 17.121094 C 57.46875 17.121094 57.457031 17.179688 57.914062 16.605469 C 58.457031 15.933594 59 15.257812 59.539062 14.582031 C 59.789062 14.273438 60.234375 13.894531 60.3125 13.519531 " fill-opacity="1" fill-rule="nonzero"/><path stroke-linecap="square" transform="matrix(0.128725, 0, 0, 0.128969, 0.121875, 0.250148)" fill-opacity="1" fill="rgb(100%, 100%, 100%)" fill-rule="nonzero" stroke-linejoin="miter" d="M 467.590024 102.887991 C 461.82435 82.019396 456.058677 61.150801 450.32335 40.282206 C 449.261252 36.465889 448.199154 32.649571 447.167402 28.833253 C 446.34807 25.895294 442.099679 25.562123 439.216842 24.017423 C 431.660776 20.049664 421.191527 15.203547 412.360944 15.203547 C 404.622803 15.203547 394.730122 25.138088 389.02514 29.317865 C 381.226309 35.042342 377.402757 43.82593 375.035796 52.215772 C 372.699181 60.393595 378.646928 68.419978 374.428883 76.991549 C 370.423258 85.139085 360.530576 91.287597 351.335845 94.31642 C 331.398754 100.858679 310.308529 101.19185 290.371438 94.134691 C 281.662237 91.045291 271.799901 86.259749 266.732178 78.990573 C 261.269961 71.145919 264.001069 61.908007 264.001069 53.306148 C 264.001069 44.128812 259.024383 36.768771 252.530414 29.92363 C 249.951034 27.227977 245.399187 23.775118 242.182548 21.594365 C 240.14939 20.201106 231.50088 14.416052 229.467721 14.416052 C 219.605386 14.416052 210.22858 17.687182 201.762145 22.139553 C 200.517973 22.805894 193.174326 26.1376 192.992252 26.834229 C 192.112228 30.317377 191.201859 33.830812 190.29149 37.344247 C 186.923123 50.428766 183.554756 63.543572 180.156043 76.658378 C 178.760143 82.110261 177.364243 87.562143 175.968344 93.014026 C 175.57385 94.528438 173.419309 98.980809 174.026222 100.49522 C 174.815209 102.433668 180.73261 105.189897 182.492658 106.431715 C 188.89559 110.884086 195.298522 115.336456 201.671108 119.819115 C 205.555351 122.514768 214.41628 131.601239 219.666077 131.601239 C 270.768149 131.41951 321.839875 131.23778 372.941947 131.056051 C 394.912196 130.965186 416.8521 130.90461 438.822349 130.813745 C 443.07074 130.813745 445.043207 131.692104 447.501204 128.66328 C 454.177247 120.334015 460.883635 112.00475 467.590024 103.705773 " stroke="rgb(0%, 0%, 0%)" stroke-width="0.1" stroke-opacity="1" stroke-miterlimit="10"/><g clip-path="url(#id4)"><path fill="rgb(100%, 100%, 100%)" d="M 40.191406 19.894531 C 39.121094 19.085938 37.25 19.125 35.929688 19.269531 C 34.417969 19.433594 32.769531 19.277344 31.246094 19.277344 C 29.707031 19.277344 28.15625 19.25 26.621094 19.175781 C 25.828125 19.136719 22.253906 18.882812 23.695312 17.632812 C 22.277344 18.253906 18.558594 18.28125 18.78125 16.191406 C 17.59375 16.492188 16.378906 16.617188 15.152344 16.398438 C 14.339844 16.253906 11.976562 15.625 12.929688 14.546875 C 11.753906 14.484375 5.710938 14.039062 7.898438 11.875 C 6.753906 11.722656 5.472656 11.375 4.433594 10.917969 C 3.382812 10.457031 2.136719 10.101562 1.273438 9.34375 C 0.808594 8.933594 0.355469 8.542969 1.203125 8.246094 C 1.933594 7.988281 2.621094 7.96875 3.398438 7.96875 C 4.855469 7.96875 6.273438 8.035156 7.738281 7.984375 C 13.171875 7.785156 18.375 6.554688 23.226562 4.421875 C 23.8125 4.164062 24.394531 3.90625 24.980469 3.652344 C 24.113281 4.628906 25.835938 5.265625 26.664062 5.386719 C 27.621094 5.527344 28.640625 5.355469 29.542969 5.089844 C 29.542969 5.84375 29.476562 6.46875 30.128906 7.042969 C 30.550781 7.414062 31.546875 7.589844 32.117188 7.351562 C 32.277344 8.472656 32.363281 9.667969 33.039062 10.660156 C 33.78125 11.746094 34.6875 12.542969 35.910156 13.210938 C 37.710938 14.203125 40.898438 14.566406 42.761719 14.34375 C 44.878906 14.085938 48.042969 13.285156 49.105469 11.421875 C 49.777344 10.238281 50.128906 9.144531 50.324219 7.839844 C 50.40625 7.300781 51.042969 7.65625 51.535156 7.558594 C 52.035156 7.457031 52.683594 7.09375 52.855469 6.65625 C 53.046875 6.160156 53.039062 5.804688 52.941406 5.296875 C 54.460938 5.519531 58.289062 6.089844 57.621094 3.753906 C 60.113281 4.847656 62.574219 5.859375 65.199219 6.683594 C 67.746094 7.484375 70.566406 7.753906 73.246094 7.980469 C 74.574219 8.089844 75.941406 8.199219 77.273438 8.175781 C 78.589844 8.148438 80.152344 7.910156 81.394531 8.347656 C 82.855469 8.863281 80.28125 10.152344 79.730469 10.4375 C 78.730469 10.953125 77.558594 11.261719 76.457031 11.566406 C 75.867188 11.730469 75.316406 11.871094 74.703125 11.980469 C 75.675781 12.871094 74.609375 13.792969 73.640625 14.113281 C 72.355469 14.539062 71.03125 14.578125 69.671875 14.652344 C 70.617188 15.710938 68.230469 16.390625 67.414062 16.492188 C 66.113281 16.65625 64.980469 16.578125 63.703125 16.296875 C 64.300781 17.269531 62.523438 17.863281 61.808594 18.113281 C 60.957031 18.414062 59.664062 18.066406 58.90625 17.734375 C 59.4375 18.582031 58.96875 18.71875 58.0625 19.039062 C 57.382812 19.28125 56.390625 19.234375 55.664062 19.292969 C 53.859375 19.4375 52.003906 19.484375 50.1875 19.484375 C 48.503906 19.484375 46.804688 19.378906 45.109375 19.378906 C 44.335938 19.378906 43.488281 19.410156 42.761719 19.6875 C 42.285156 19.871094 42.363281 20 41.820312 19.972656 C 41.277344 19.945312 40.734375 19.921875 40.191406 19.894531 " fill-opacity="1" fill-rule="nonzero"/><path fill="rgb(100%, 100%, 100%)" d="M 40.191406 19.894531 C 39.121094 19.085938 37.25 19.125 35.929688 19.269531 C 34.417969 19.433594 32.769531 19.277344 31.246094 19.277344 C 29.707031 19.277344 28.15625 19.25 26.621094 19.175781 C 25.828125 19.136719 22.253906 18.882812 23.695312 17.632812 C 22.277344 18.253906 18.558594 18.28125 18.78125 16.191406 C 17.59375 16.492188 16.378906 16.617188 15.152344 16.398438 C 14.339844 16.253906 11.976562 15.625 12.929688 14.546875 C 11.753906 14.484375 5.710938 14.039062 7.898438 11.875 C 6.753906 11.722656 5.472656 11.375 4.433594 10.917969 C 3.382812 10.457031 2.136719 10.101562 1.273438 9.34375 C 0.808594 8.933594 0.355469 8.542969 1.203125 8.246094 C 1.933594 7.988281 2.621094 7.96875 3.398438 7.96875 C 4.855469 7.96875 6.273438 8.035156 7.738281 7.984375 C 13.171875 7.785156 18.375 6.554688 23.226562 4.421875 C 23.8125 4.164062 24.394531 3.90625 24.980469 3.652344 C 24.113281 4.628906 25.835938 5.265625 26.664062 5.386719 C 27.621094 5.527344 28.640625 5.355469 29.542969 5.089844 C 29.542969 5.84375 29.476562 6.46875 30.128906 7.042969 C 30.550781 7.414062 31.546875 7.589844 32.117188 7.351562 C 32.277344 8.472656 32.363281 9.667969 33.039062 10.660156 C 33.78125 11.746094 34.6875 12.542969 35.910156 13.210938 C 37.710938 14.203125 40.898438 14.566406 42.761719 14.34375 C 44.878906 14.085938 48.042969 13.285156 49.105469 11.421875 C 49.777344 10.238281 50.128906 9.144531 50.324219 7.839844 C 50.40625 7.300781 51.042969 7.65625 51.535156 7.558594 C 52.035156 7.457031 52.683594 7.09375 52.855469 6.65625 C 53.046875 6.160156 53.039062 5.804688 52.941406 5.296875 C 54.460938 5.519531 58.289062 6.089844 57.621094 3.753906 C 60.113281 4.847656 62.574219 5.859375 65.199219 6.683594 C 67.746094 7.484375 70.566406 7.753906 73.246094 7.980469 C 74.574219 8.089844 75.941406 8.199219 77.273438 8.175781 C 78.589844 8.148438 80.152344 7.910156 81.394531 8.347656 C 82.855469 8.863281 80.28125 10.152344 79.730469 10.4375 C 78.730469 10.953125 77.558594 11.261719 76.457031 11.566406 C 75.867188 11.730469 75.316406 11.871094 74.703125 11.980469 C 75.675781 12.871094 74.609375 13.792969 73.640625 14.113281 C 72.355469 14.539062 71.03125 14.578125 69.671875 14.652344 C 70.617188 15.710938 68.230469 16.390625 67.414062 16.492188 C 66.113281 16.65625 64.980469 16.578125 63.703125 16.296875 C 64.300781 17.269531 62.523438 17.863281 61.808594 18.113281 C 60.957031 18.414062 59.664062 18.066406 58.90625 17.734375 C 59.4375 18.582031 58.96875 18.71875 58.0625 19.039062 C 57.382812 19.28125 56.390625 19.234375 55.664062 19.292969 C 53.859375 19.4375 52.003906 19.484375 50.1875 19.484375 C 48.503906 19.484375 46.804688 19.378906 45.109375 19.378906 C 44.335938 19.378906 43.488281 19.410156 42.761719 19.6875 C 42.285156 19.871094 42.363281 20 41.820312 19.972656 C 41.277344 19.945312 40.734375 19.921875 40.191406 19.894531 " fill-opacity="1" fill-rule="nonzero"/></g><g clip-path="url(#id5)"><path stroke-linecap="square" transform="matrix(0.128725, 0, 0, 0.128969, 0.121875, 0.250148)" fill="none" stroke-linejoin="miter" d="M 311.279589 152.318393 C 302.964882 146.048728 288.429316 146.35161 278.172487 147.472275 C 266.428721 148.744381 253.622858 147.532852 241.788055 147.532852 C 229.831869 147.532852 217.784647 147.320834 205.858807 146.745357 C 199.698641 146.442475 171.932372 144.47374 183.129917 134.781504 C 172.114446 139.597334 143.225389 139.809351 144.955091 123.605145 C 135.730014 125.937339 126.292517 126.906563 116.763984 125.210421 C 110.452089 124.089757 92.092972 119.213351 99.49731 110.853797 C 90.36327 110.369186 43.418552 106.916327 60.412115 90.136644 C 51.52084 88.955402 41.567467 86.259749 33.495525 82.716026 C 25.332545 79.142014 15.652284 76.385784 8.945895 70.509866 C 5.334763 67.329602 1.814668 64.300778 8.399674 61.998872 C 14.07431 59.999848 19.415144 59.848407 25.453928 59.848407 C 36.772855 59.848407 47.788325 60.363307 59.167943 59.96956 C 101.37874 58.42486 141.799144 48.884066 179.488439 32.346688 C 184.040286 30.347665 188.561788 28.348641 193.113635 26.379906 C 186.376901 33.951965 199.759332 38.888948 206.192609 39.827883 C 213.627293 40.918259 221.547507 39.585577 228.557352 37.525977 C 228.557352 43.371607 228.041476 48.217724 233.109199 52.670095 C 236.386529 55.547478 244.12467 56.910448 248.555134 55.062866 C 249.799306 63.75559 250.46691 73.02379 255.716707 80.717002 C 261.48238 89.137132 268.522571 95.315932 278.020759 100.49522 C 292.010103 108.188432 316.772152 111.005238 331.247026 109.278809 C 347.694367 107.279785 372.274342 101.070697 380.528359 86.623208 C 385.74781 77.445873 388.478919 68.965166 389.996201 58.848895 C 390.63346 54.669119 395.5798 57.425348 399.403352 56.668142 C 403.287595 55.880648 408.324973 53.063842 409.660181 49.67156 C 411.147118 45.824954 411.086427 43.068724 410.327785 39.131253 C 422.132242 40.857683 451.870978 45.279765 446.681872 27.1674 C 466.042396 35.648106 485.160154 43.492759 505.55243 49.883577 C 525.337792 56.092666 547.24735 58.182554 568.064465 59.939272 C 578.381986 60.787342 589.002962 61.635413 599.350828 61.453684 C 609.577312 61.241666 621.715571 59.394084 631.365487 62.786366 C 642.71476 66.784413 622.716978 76.779531 618.438241 78.990573 C 610.669755 82.98862 601.566061 85.38139 593.008588 87.743873 C 588.426395 89.015979 584.147659 90.106355 579.383392 90.954426 C 586.939458 97.860144 578.655096 105.008168 571.129376 107.491803 C 561.145657 110.793221 550.858483 111.096103 540.298197 111.67158 C 547.641844 119.879692 529.100653 125.149845 522.758412 125.937339 C 512.653311 127.209445 503.853073 126.60368 493.930046 124.422927 C 498.572931 131.964698 484.765661 136.56851 479.212407 138.506957 C 472.597056 140.839151 462.552646 138.143498 456.66559 135.568998 C 460.792598 142.141546 457.151121 143.201634 450.11093 145.685269 C 444.830787 147.56314 437.122993 147.199681 431.478702 147.654005 C 417.459013 148.774669 403.04483 149.138128 388.934103 149.138128 C 375.855129 149.138128 362.654772 148.320346 349.48476 148.320346 C 343.476322 148.320346 336.891316 148.562652 331.247026 150.713116 C 327.544857 152.136664 328.15177 153.136175 323.933725 152.924158 C 319.71568 152.71214 315.497634 152.530411 311.279589 152.318393 " stroke="rgb(0%, 0%, 0%)" stroke-width="0.1" stroke-opacity="1" stroke-miterlimit="10"/></g><path fill="rgb(100%, 100%, 100%)" d="M 39.605469 47.445312 C 40.003906 47.488281 40.175781 46.855469 40.425781 46.621094 C 40.84375 46.230469 41.414062 45.941406 41.921875 45.644531 C 42.886719 45.078125 43.898438 44.429688 44.914062 43.980469 C 46.039062 43.488281 47.050781 43.042969 47.914062 42.203125 C 48.15625 41.964844 49.691406 39.527344 48.992188 39.527344 L 46.484375 39.527344 C 45.417969 39.527344 45.804688 39.535156 45.332031 40.222656 C 44.660156 41.207031 43.675781 41.972656 42.53125 42.511719 C 40.273438 43.574219 38.261719 44.558594 37.066406 46.660156 C 36.675781 47.351562 36.796875 48.136719 36.796875 48.886719 C 37.773438 48.441406 38.746094 47.992188 39.722656 47.546875 C 39.683594 47.511719 39.644531 47.480469 39.605469 47.445312 " fill-opacity="1" fill-rule="nonzero"/><path stroke-linecap="square" transform="matrix(0.128725, 0, 0, 0.128969, 0.121875, 0.250148)" fill-opacity="1" fill="rgb(100%, 100%, 100%)" fill-rule="nonzero" stroke-linejoin="miter" d="M 352.185523 303.759575 C 352.185523 320.963293 327.028981 327.747858 313.100328 334.835306 C 305.726336 338.591047 296.288839 345.58763 291.919066 352.008736 C 285.971319 360.671171 284.909221 367.122566 284.909221 377.087396 " stroke="rgb(0%, 0%, 0%)" stroke-width="0.1" stroke-opacity="1" stroke-miterlimit="10"/><path stroke-linecap="square" transform="matrix(0.128725, 0, 0, 0.128969, 0.121875, 0.250148)" fill-opacity="1" fill="rgb(100%, 100%, 100%)" fill-rule="nonzero" stroke-linejoin="miter" d="M 306.727742 365.941325 C 309.822998 366.274495 311.158207 361.367801 313.100328 359.550507 C 316.104547 356.763989 320.292247 354.431795 323.994416 352.402483 C 331.459445 348.252994 338.985166 343.01313 346.723306 339.620847 C 363.534796 332.260806 380.346285 322.901741 380.346285 304.547069 " stroke="rgb(0%, 0%, 0%)" stroke-width="0.1" stroke-opacity="1" stroke-miterlimit="10"/><path fill="rgb(100%, 100%, 100%)" d="M 39.839844 54.230469 C 39.78125 53.277344 41.246094 52.171875 41.945312 51.558594 C 41.28125 51.28125 40.617188 51.003906 39.953125 50.726562 C 39.484375 50.53125 39.085938 51.296875 38.761719 51.582031 C 38.035156 52.214844 37.285156 53.410156 37.382812 54.332031 C 38.203125 54.300781 39.019531 54.265625 39.839844 54.230469 " fill-opacity="1" fill-rule="nonzero"/><path stroke-linecap="square" transform="matrix(0.128725, 0, 0, 0.128969, 0.121875, 0.250148)" fill-opacity="1" fill="rgb(100%, 100%, 100%)" fill-rule="nonzero" stroke-linejoin="miter" d="M 308.548481 418.551991 C 308.093296 411.161662 319.472914 402.590091 324.904785 397.834837 C 319.746025 395.684373 314.587265 393.533908 309.428505 391.383443 C 305.787027 389.869031 302.691771 395.805526 300.173082 398.016567 C 294.528791 402.923261 288.702427 412.191462 289.461068 419.339485 " stroke="rgb(0%, 0%, 0%)" stroke-width="0.1" stroke-opacity="1" stroke-miterlimit="10"/><path fill="rgb(100%, 100%, 100%)" d="M 41.945312 55.667969 C 43.171875 55.519531 44.246094 54.652344 44.753906 53.714844 C 45.132812 53.015625 45.007812 53 44.203125 52.800781 C 43.191406 52.546875 42.183594 52.292969 41.171875 52.039062 C 40.753906 51.933594 40.496094 52.542969 40.394531 52.898438 C 40.28125 53.285156 39.65625 54.054688 39.722656 54.4375 C 39.78125 54.777344 40.457031 55.027344 40.800781 55.128906 C 41.113281 55.222656 41.96875 55.847656 41.945312 55.667969 " fill-opacity="1" fill-rule="nonzero"/><path stroke-linecap="square" transform="matrix(0.128725, 0, 0, 0.128969, 0.121875, 0.250148)" fill-opacity="1" fill="rgb(100%, 100%, 100%)" fill-rule="nonzero" stroke-linejoin="miter" d="M 324.904785 429.698062 C 333.79606 428.637974 350.759278 418.188532 348.544045 408.980908 " stroke="rgb(0%, 0%, 0%)" stroke-width="0.1" stroke-opacity="1" stroke-miterlimit="10"/><path stroke-linecap="square" transform="matrix(0.128725, 0, 0, 0.128969, 0.121875, 0.250148)" fill-opacity="1" fill="rgb(100%, 100%, 100%)" fill-rule="nonzero" stroke-linejoin="miter" d="M 544.850044 63.028672 C 562.45052 66.905566 582.600031 69.056031 600.655691 67.087296 C 604.327515 66.693549 624.143223 63.967607 626.631566 66.239225 C 631.153068 70.26756 610.244916 78.415096 607.119314 79.596337 C 600.928802 81.928531 592.765823 85.351102 585.938052 85.351102 L 557.261414 85.351102 C 548.15772 85.351102 538.234693 82.776602 529.343418 81.201614 C 522.728067 80.050661 508.82976 79.081437 503.94411 74.992525 " stroke="rgb(0%, 0%, 0%)" stroke-width="0.1" stroke-opacity="1" stroke-miterlimit="10"/><path stroke-linecap="square" transform="matrix(0.128725, 0, 0, 0.128969, 0.121875, 0.250148)" fill-opacity="1" fill="rgb(100%, 100%, 100%)" fill-rule="nonzero" stroke-linejoin="miter" d="M 479.424826 87.743873 C 488.073336 94.770744 504.551023 97.92072 515.414765 101.464444 C 527.704753 105.523068 542.027899 106.098544 555.046182 106.098544 C 560.629781 106.098544 567.700317 103.645197 572.312856 100.919256 C 579.262009 96.860632 573.253571 91.74192 567.002367 91.74192 C 552.83095 91.74192 539.72163 88.985691 525.762631 86.956379 " stroke="rgb(0%, 0%, 0%)" stroke-width="0.1" stroke-opacity="1" stroke-miterlimit="10"/><path stroke-linecap="square" transform="matrix(0.128725, 0, 0, 0.128969, 0.121875, 0.250148)" fill-opacity="1" fill="rgb(100%, 100%, 100%)" fill-rule="nonzero" stroke-linejoin="miter" d="M 475.783349 96.527461 C 483.7946 100.737526 492.473455 103.25145 501.334385 105.856238 C 505.886232 107.188921 510.407733 108.491315 514.868544 110.066303 C 518.145874 111.217256 525.064681 111.823021 527.58337 114.06435 C 535.109091 120.788339 513.108496 120.667186 509.406327 120.42488 C 500.606089 119.879692 494.021083 116.790292 485.767067 114.851845 " stroke="rgb(0%, 0%, 0%)" stroke-width="0.1" stroke-opacity="1" stroke-miterlimit="10"/><path stroke-linecap="square" transform="matrix(0.128725, 0, 0, 0.128969, 0.121875, 0.250148)" fill-opacity="1" fill="rgb(100%, 100%, 100%)" fill-rule="nonzero" stroke-linejoin="miter" d="M 446.712218 104.493268 C 453.145495 107.340362 492.382418 118.728739 483.066304 129.208469 C 477.695124 135.205539 462.73472 131.23778 456.362134 129.35991 C 447.592241 126.78541 439.520299 123.847451 431.235937 120.42488 " stroke="rgb(0%, 0%, 0%)" stroke-width="0.1" stroke-opacity="1" stroke-miterlimit="10"/><path stroke-linecap="square" transform="matrix(0.128725, 0, 0, 0.128969, 0.121875, 0.250148)" fill-opacity="1" fill="rgb(100%, 100%, 100%)" fill-rule="nonzero" stroke-linejoin="miter" d="M 418.52111 122.817651 C 424.256438 126.997427 433.02633 128.178669 439.429262 131.570951 C 443.525925 133.781992 454.146901 141.959816 443.07074 141.959816 C 439.550645 141.959816 436.000204 143.141057 432.146306 142.74731 C 427.533768 142.292987 423.19434 140.657422 418.854912 139.385316 C 409.508453 136.659375 402.073769 131.540663 393.971481 126.815698 " stroke="rgb(0%, 0%, 0%)" stroke-width="0.1" stroke-opacity="1" stroke-miterlimit="10"/><path stroke-linecap="square" transform="matrix(0.128725, 0, 0, 0.128969, 0.121875, 0.250148)" fill-opacity="1" fill="rgb(100%, 100%, 100%)" fill-rule="nonzero" stroke-linejoin="miter" d="M 464.889261 39.131253 C 474.903325 43.553336 485.493956 46.370142 495.781131 50.277324 C 502.851667 53.003266 517.781726 60.99936 501.243348 63.028672 C 477.786161 65.936343 452.629619 56.213819 431.235937 48.702336 " stroke="rgb(0%, 0%, 0%)" stroke-width="0.1" stroke-opacity="1" stroke-miterlimit="10"/><path stroke-linecap="square" transform="matrix(0.128725, 0, 0, 0.128969, 0.121875, 0.250148)" fill-opacity="1" fill="rgb(100%, 100%, 100%)" fill-rule="nonzero" stroke-linejoin="miter" d="M 445.771502 59.060913 C 453.691717 62.877231 463.129213 64.452219 471.231501 67.814213 C 474.144684 69.025743 481.549022 70.812749 483.066304 73.387249 C 484.917389 76.567514 481.852478 76.143478 478.302037 77.173278 C 468.439702 80.050661 458.607712 75.022814 449.746782 72.448313 C 439.854101 69.540643 430.295222 64.391643 421.252219 59.848407 " stroke="rgb(0%, 0%, 0%)" stroke-width="0.1" stroke-opacity="1" stroke-miterlimit="10"/><path stroke-linecap="square" transform="matrix(0.128725, 0, 0, 0.128969, 0.121875, 0.250148)" fill-opacity="1" fill="rgb(100%, 100%, 100%)" fill-rule="nonzero" stroke-linejoin="miter" d="M 409.417416 62.241178 C 418.612147 66.511819 428.868976 69.601219 437.487141 74.659355 C 441.947951 77.264143 460.307068 82.716026 459.396699 88.531367 C 458.304255 95.770256 440.369977 90.954426 436.121586 89.106844 C 426.168214 84.745337 417.610741 78.384808 407.596677 74.205031 " stroke="rgb(0%, 0%, 0%)" stroke-width="0.1" stroke-opacity="1" stroke-miterlimit="10"/><path stroke-linecap="square" transform="matrix(0.128725, 0, 0, 0.128969, 0.121875, 0.250148)" fill-opacity="1" fill="rgb(100%, 100%, 100%)" fill-rule="nonzero" stroke-linejoin="miter" d="M 410.358131 83.776114 C 415.122398 88.713096 422.253625 92.650567 427.624805 97.314956 C 430.780752 100.071185 436.971264 105.280762 429.445544 105.280762 C 417.216247 105.280762 401.618584 94.679879 393.971481 86.956379 " stroke="rgb(0%, 0%, 0%)" stroke-width="0.1" stroke-opacity="1" stroke-miterlimit="10"/><path stroke-linecap="square" transform="matrix(0.128725, 0, 0, 0.128969, 0.121875, 0.250148)" fill-opacity="1" fill="rgb(100%, 100%, 100%)" fill-rule="nonzero" stroke-linejoin="miter" d="M 385.808501 90.924138 C 388.084425 94.437573 411.632648 109.702844 407.171838 113.670603 C 400.981326 119.092198 387.598895 109.702844 382.167024 106.886038 " stroke="rgb(0%, 0%, 0%)" stroke-width="0.1" stroke-opacity="1" stroke-miterlimit="10"/><path stroke-linecap="square" transform="matrix(0.128725, 0, 0, 0.128969, 0.121875, 0.250148)" fill-opacity="1" fill="rgb(100%, 100%, 100%)" fill-rule="nonzero" stroke-linejoin="miter" d="M 368.541828 104.493268 C 370.362566 105.977391 383.987763 121.242662 377.159992 121.242662 C 372.729527 121.242662 362.988574 119.697962 361.258872 116.457121 " stroke="rgb(0%, 0%, 0%)" stroke-width="0.1" stroke-opacity="1" stroke-miterlimit="10"/><path stroke-linecap="square" transform="matrix(0.128725, 0, 0, 0.128969, 0.121875, 0.250148)" fill-opacity="1" fill="rgb(100%, 100%, 100%)" fill-rule="nonzero" stroke-linejoin="miter" d="M 345.812937 114.06435 C 347.997824 117.426345 352.185523 119.637386 352.185523 123.605145 C 352.185523 127.906074 347.60333 129.632504 343.081829 129.995963 " stroke="rgb(0%, 0%, 0%)" stroke-width="0.1" stroke-opacity="1" stroke-miterlimit="10"/><path stroke-linecap="square" transform="matrix(0.128725, 0, 0, 0.128969, 0.121875, 0.250148)" fill-opacity="1" fill="rgb(100%, 100%, 100%)" fill-rule="nonzero" stroke-linejoin="miter" d="M 359.438133 136.356492 C 357.131864 135.205539 351.851721 134.902657 349.454415 135.962745 C 346.662615 137.204563 343.84047 141.505493 348.544045 142.74731 " stroke="rgb(0%, 0%, 0%)" stroke-width="0.1" stroke-opacity="1" stroke-miterlimit="10"/><path stroke-linecap="square" transform="matrix(0.128725, 0, 0, 0.128969, 0.121875, 0.250148)" fill-opacity="1" fill="rgb(100%, 100%, 100%)" fill-rule="nonzero" stroke-linejoin="miter" d="M 372.183305 124.422927 C 369.270123 125.57388 365.173461 124.362351 363.079611 126.815698 C 361.471292 128.693569 362.32097 131.661816 364.90035 132.78248 C 367.358347 133.842569 368.66321 135.508422 371.272936 136.356492 C 375.035796 137.59831 379.19315 137.174275 383.289813 137.174275 C 389.905164 137.174275 401.406165 138.930992 391.240373 131.570951 C 385.444354 127.391174 379.617989 125.210421 372.183305 125.210421 " stroke="rgb(0%, 0%, 0%)" stroke-width="0.1" stroke-opacity="1" stroke-miterlimit="10"/><path fill="rgb(100%, 100%, 100%)" d="M 55.515625 3.546875 C 54.574219 3.589844 53.839844 3.402344 52.945312 3.753906 C 52.042969 4.109375 51.417969 4.785156 50.71875 5.398438 C 51.289062 4.648438 51.785156 3.5 52.707031 3.035156 C 53.050781 2.863281 53.777344 2.652344 54.175781 2.859375 C 54.464844 3.011719 55.472656 3.664062 55.515625 3.546875 " fill-opacity="1" fill-rule="nonzero"/><path stroke-linecap="square" transform="matrix(0.128725, 0, 0, 0.128969, 0.121875, 0.250148)" fill-opacity="1" fill="rgb(100%, 100%, 100%)" fill-rule="nonzero" stroke-linejoin="miter" d="M 94.035093 62.241178 C 76.009778 66.754125 57.225822 66.239225 38.623939 66.239225 C 33.161723 66.239225 16.623344 62.392619 12.708756 65.81519 C 8.733476 69.298337 30.218195 77.869908 32.676192 78.808843 C 49.305608 85.04822 64.569469 85.078508 82.564438 83.866979 C 92.03228 83.230926 101.135975 82.049684 110.482435 80.41412 C 117.06744 79.232878 130.996093 78.263655 135.851397 74.205031 " stroke="rgb(0%, 0%, 0%)" stroke-width="0.1" stroke-opacity="1" stroke-miterlimit="10"/><path stroke-linecap="square" transform="matrix(0.128725, 0, 0, 0.128969, 0.121875, 0.250148)" fill-opacity="1" fill="rgb(100%, 100%, 100%)" fill-rule="nonzero" stroke-linejoin="miter" d="M 159.490657 86.956379 C 138.279048 98.980809 111.180384 105.280762 86.084533 105.280762 C 80.258169 105.280762 72.307609 102.918279 67.482651 100.101473 C 60.108658 95.800544 66.268825 91.529902 72.246918 90.924138 C 86.327299 89.500591 99.922149 88.228485 114.032875 86.138596 " stroke="rgb(0%, 0%, 0%)" stroke-width="0.1" stroke-opacity="1" stroke-miterlimit="10"/><path stroke-linecap="square" transform="matrix(0.128725, 0, 0, 0.128969, 0.121875, 0.250148)" fill-opacity="1" fill="rgb(100%, 100%, 100%)" fill-rule="nonzero" stroke-linejoin="miter" d="M 163.132134 95.709679 C 154.574662 99.253403 146.593756 102.403379 137.581098 105.038456 C 133.029251 106.371138 128.598787 107.946127 124.046939 109.278809 C 121.285485 110.066303 113.243889 111.338409 111.332113 113.246568 C 104.595379 120.031133 127.8098 120.182574 131.360241 119.425368 C 134.941027 118.637874 139.887368 119.061909 143.134352 117.638362 C 146.168917 116.30568 150.508345 114.912421 154.02844 114.06435 " stroke="rgb(0%, 0%, 0%)" stroke-width="0.1" stroke-opacity="1" stroke-miterlimit="10"/><path stroke-linecap="square" transform="matrix(0.128725, 0, 0, 0.128969, 0.121875, 0.250148)" fill-opacity="1" fill="rgb(100%, 100%, 100%)" fill-rule="nonzero" stroke-linejoin="miter" d="M 192.203265 103.675485 C 184.92031 106.886038 148.596569 116.578274 156.759548 127.603192 C 161.523815 134.024298 176.96975 130.450286 183.463719 128.572416 C 192.17292 125.997916 200.335899 123.241686 208.55957 119.637386 " stroke="rgb(0%, 0%, 0%)" stroke-width="0.1" stroke-opacity="1" stroke-miterlimit="10"/><path stroke-linecap="square" transform="matrix(0.128725, 0, 0, 0.128969, 0.121875, 0.250148)" fill-opacity="1" fill="rgb(100%, 100%, 100%)" fill-rule="nonzero" stroke-linejoin="miter" d="M 220.394373 122.030157 C 213.748676 124.786386 206.617448 127.330598 200.39659 130.783457 C 196.360619 133.024786 185.557568 141.142034 196.755113 141.142034 C 205.373277 141.142034 212.53485 141.505493 221.092323 138.506957 C 230.378091 135.266116 237.873466 131.41951 244.944002 125.210421 " stroke="rgb(0%, 0%, 0%)" stroke-width="0.1" stroke-opacity="1" stroke-miterlimit="10"/><path stroke-linecap="square" transform="matrix(0.128725, 0, 0, 0.128969, 0.121875, 0.250148)" fill-opacity="1" fill="rgb(100%, 100%, 100%)" fill-rule="nonzero" stroke-linejoin="miter" d="M 174.026222 38.343759 C 170.111633 41.281718 163.64801 42.038924 159.065817 44.461983 C 154.453279 46.885042 148.353804 47.581671 143.468154 49.732136 C 139.583911 51.458566 133.059597 51.852313 131.329895 55.85036 C 129.903649 59.121489 133.848584 62.241178 138.400431 62.241178 C 162.859023 62.241178 185.952062 55.820072 208.589915 47.884554 " stroke="rgb(0%, 0%, 0%)" stroke-width="0.1" stroke-opacity="1" stroke-miterlimit="10"/><path stroke-linecap="square" transform="matrix(0.128725, 0, 0, 0.128969, 0.121875, 0.250148)" fill-opacity="1" fill="rgb(100%, 100%, 100%)" fill-rule="nonzero" stroke-linejoin="miter" d="M 193.113635 58.243131 C 188.470751 61.635413 177.971156 63.967607 172.235829 65.209425 C 166.014971 66.602684 159.096163 70.206984 154.938809 74.205031 C 162.161074 78.808843 178.213922 77.264143 185.61826 73.356961 C 195.996471 67.905078 207.952657 64.361354 218.573634 59.060913 " stroke="rgb(0%, 0%, 0%)" stroke-width="0.1" stroke-opacity="1" stroke-miterlimit="10"/><path stroke-linecap="square" transform="matrix(0.128725, 0, 0, 0.128969, 0.121875, 0.250148)" fill-opacity="1" fill="rgb(100%, 100%, 100%)" fill-rule="nonzero" stroke-linejoin="miter" d="M 229.467721 61.453684 C 221.729581 66.814702 209.864433 70.055543 200.973158 73.962725 C 196.724767 75.810308 178.092539 83.018908 180.398808 88.531367 C 183.160262 95.194779 200.578664 89.652032 205.039475 87.713585 C 213.445219 84.01842 224.430344 78.929996 231.28846 73.387249 " stroke="rgb(0%, 0%, 0%)" stroke-width="0.1" stroke-opacity="1" stroke-miterlimit="10"/><path stroke-linecap="square" transform="matrix(0.128725, 0, 0, 0.128969, 0.121875, 0.250148)" fill-opacity="1" fill="rgb(100%, 100%, 100%)" fill-rule="nonzero" stroke-linejoin="miter" d="M 228.557352 82.958332 C 223.853777 87.804449 217.086697 90.863561 212.201048 95.709679 C 210.441 97.466397 203.036662 104.493268 209.469939 104.493268 C 223.55032 104.493268 236.720331 93.347197 245.824026 85.351102 " stroke="rgb(0%, 0%, 0%)" stroke-width="0.1" stroke-opacity="1" stroke-miterlimit="10"/><path stroke-linecap="square" transform="matrix(0.128725, 0, 0, 0.128969, 0.121875, 0.250148)" fill-opacity="1" fill="rgb(100%, 100%, 100%)" fill-rule="nonzero" stroke-linejoin="miter" d="M 253.106982 90.136644 C 249.040665 98.799079 232.19883 102.554821 232.19883 112.852821 C 232.19883 115.699915 242.546696 113.155703 244.215707 112.671091 C 249.344121 111.15668 253.015945 108.551891 256.748459 105.280762 " stroke="rgb(0%, 0%, 0%)" stroke-width="0.1" stroke-opacity="1" stroke-miterlimit="10"/><path stroke-linecap="square" transform="matrix(0.128725, 0, 0, 0.128969, 0.121875, 0.250148)" fill-opacity="1" fill="rgb(100%, 100%, 100%)" fill-rule="nonzero" stroke-linejoin="miter" d="M 270.373655 103.675485 C 268.188769 106.886038 256.748459 117.547498 261.300307 120.42488 C 265.18455 122.908515 275.50207 116.881156 278.56698 115.639339 " stroke="rgb(0%, 0%, 0%)" stroke-width="0.1" stroke-opacity="1" stroke-miterlimit="10"/><path stroke-linecap="square" transform="matrix(0.128725, 0, 0, 0.128969, 0.121875, 0.250148)" fill-opacity="1" fill="rgb(100%, 100%, 100%)" fill-rule="nonzero" stroke-linejoin="miter" d="M 293.102546 113.246568 C 291.312153 116.608562 286.72996 118.698451 286.72996 122.817651 C 286.72996 126.845986 292.799089 127.81521 296.744024 129.208469 " stroke="rgb(0%, 0%, 0%)" stroke-width="0.1" stroke-opacity="1" stroke-miterlimit="10"/><path stroke-linecap="square" transform="matrix(0.128725, 0, 0, 0.128969, 0.121875, 0.250148)" fill-opacity="1" fill="rgb(100%, 100%, 100%)" fill-rule="nonzero" stroke-linejoin="miter" d="M 279.447004 135.568998 C 282.967099 134.539198 285.849936 133.267092 289.461068 134.781504 C 293.345311 136.417069 294.498446 139.385316 290.371438 141.959816 " stroke="rgb(0%, 0%, 0%)" stroke-width="0.1" stroke-opacity="1" stroke-miterlimit="10"/><path stroke-linecap="square" transform="matrix(0.128725, 0, 0, 0.128969, 0.121875, 0.250148)" fill-opacity="1" fill="rgb(100%, 100%, 100%)" fill-rule="nonzero" stroke-linejoin="miter" d="M 266.732178 123.605145 C 275.01654 122.333039 280.448411 127.027716 274.015133 132.388733 C 268.674299 136.810816 262.938972 136.386781 255.83809 136.386781 C 248.706863 136.386781 237.782429 137.295428 248.221332 130.419998 C 254.381499 126.361374 259.995444 124.422927 267.642547 124.422927 " stroke="rgb(0%, 0%, 0%)" stroke-width="0.1" stroke-opacity="1" stroke-miterlimit="10"/><path fill="rgb(100%, 100%, 100%)" d="M 26.96875 3.445312 C 27.871094 3.445312 28.796875 3.191406 29.660156 3.546875 C 30.507812 3.898438 31.199219 4.671875 31.765625 5.296875 C 31.339844 4.546875 30.679688 3.441406 29.894531 2.929688 C 28.894531 2.285156 27.882812 2.988281 26.96875 3.445312 " fill-opacity="1" fill-rule="nonzero"/><path fill="rgb(100%, 100%, 100%)" d="M 33.640625 30.996094 C 33.34375 28.816406 37.496094 28.253906 39.242188 28.171875 C 42.382812 28.027344 45.492188 27.859375 48.621094 27.582031 C 51.195312 27.355469 54.101562 26.566406 55.867188 24.859375 C 57.578125 23.203125 56.007812 19.839844 53.753906 19.09375 C 51.265625 18.273438 48.855469 17.511719 46.371094 18.761719 C 45.941406 18.976562 45.128906 19.21875 44.957031 19.667969 C 44.757812 20.195312 45.597656 20.550781 46.113281 20.625 C 47.476562 20.824219 48.769531 20.839844 50.144531 20.753906 C 51.308594 20.679688 53.136719 20.976562 53.335938 22.203125 C 53.554688 23.550781 52.398438 24.445312 51.089844 24.90625 C 49.953125 25.304688 48.296875 25.277344 47.078125 25.445312 C 45.742188 25.628906 44.410156 25.734375 43.0625 25.851562 C 41.84375 25.957031 40.589844 25.871094 39.371094 25.960938 C 38.0625 26.058594 36.824219 26.121094 35.519531 26.347656 C 32.777344 26.828125 30.246094 28.613281 30.246094 31.203125 C 31.378906 31.132812 32.507812 31.066406 33.640625 30.996094 " fill-opacity="1" fill-rule="nonzero"/><path stroke-linecap="square" transform="matrix(0.128725, 0, 0, 0.128969, 0.121875, 0.250148)" fill-opacity="1" fill="rgb(100%, 100%, 100%)" fill-rule="nonzero" stroke-linejoin="miter" d="M 260.389937 238.397561 C 258.083668 221.496725 290.341092 217.135219 303.905597 216.499166 C 328.303498 215.378501 352.458634 214.076107 376.765498 211.925642 C 396.763281 210.168925 419.340443 204.050701 433.056676 190.814741 C 446.34807 177.972529 434.149119 151.894358 416.63968 146.109305 C 397.309502 139.748775 378.586237 133.842569 359.286405 143.534804 C 355.948384 145.200657 349.636489 147.078528 348.30128 150.561675 C 346.753652 154.650587 353.277967 157.406817 357.283592 157.982293 C 367.874223 159.526993 377.918633 159.648146 388.600301 158.981805 C 397.643304 158.406328 411.845068 160.708234 413.392696 170.218741 C 415.092052 180.668182 406.10974 187.604188 395.943948 191.1782 C 387.113364 194.2676 374.246809 194.055583 364.778967 195.357977 C 354.400755 196.781524 344.052889 197.599306 333.583641 198.507954 C 324.115799 199.325736 314.374845 198.659395 304.907003 199.356024 C 294.741211 200.11323 285.12164 200.597842 274.986194 202.35456 C 253.683549 206.080013 234.019569 219.921737 234.019569 240.002837 " stroke="rgb(0%, 0%, 0%)" stroke-width="0.1" stroke-opacity="1" stroke-miterlimit="10"/><path fill="rgb(100%, 100%, 100%)" d="M 39.253906 31.613281 C 39.0625 23.628906 38.867188 15.644531 38.671875 7.660156 C 40.308594 7.695312 41.945312 7.726562 43.585938 7.761719 C 43.421875 12.5 43.257812 17.238281 43.09375 21.976562 C 43 24.667969 42.910156 27.359375 42.816406 30.050781 C 42.800781 30.535156 42.78125 31.015625 42.765625 31.5 C 42.765625 31.550781 39.601562 31.601562 39.253906 31.613281 " fill-opacity="1" fill-rule="nonzero"/><path stroke-linecap="square" transform="matrix(0.128725, 0, 0, 0.128969, 0.121875, 0.250148)" fill-opacity="1" fill="rgb(100%, 100%, 100%)" fill-rule="nonzero" stroke-linejoin="miter" d="M 303.996634 243.183102 C 302.509697 181.273947 300.992415 119.364792 299.475132 57.455636 C 312.189959 57.728231 324.904785 57.970536 337.649958 58.243131 C 335.525762 119.637386 333.401567 181.001353 331.277372 242.36532 " stroke="rgb(0%, 0%, 0%)" stroke-width="0.1" stroke-opacity="1" stroke-miterlimit="10"/><g clip-path="url(#id6)"><path fill="rgb(100%, 100%, 100%)" d="M 42.53125 39.527344 C 42.359375 45.042969 42.1875 50.558594 42.015625 56.074219 C 41.953125 58.0625 41.890625 60.050781 41.828125 62.039062 C 41.820312 62.261719 40.328125 62.097656 40.195312 62.070312 C 39.988281 62.023438 40.066406 61.808594 40.0625 61.636719 C 40.035156 60.632812 40.011719 59.628906 39.984375 58.625 C 39.867188 54.097656 39.75 49.574219 39.628906 45.046875 C 39.589844 43.453125 39.546875 41.855469 39.503906 40.257812 C 39.503906 40.199219 39.453125 39.632812 39.515625 39.632812 C 40.519531 39.597656 41.527344 39.5625 42.53125 39.53125 " fill-opacity="1" fill-rule="nonzero"/><path stroke-linecap="square" transform="matrix(0.128725, 0, 0, 0.128969, 0.121875, 0.250148)" fill-opacity="1" fill="rgb(100%, 100%, 100%)" fill-rule="nonzero" stroke-linejoin="miter" d="M 329.456633 304.547069 C 328.121424 347.314059 326.786216 390.081049 325.451007 432.848039 C 324.965477 448.264751 324.479946 463.681463 323.994416 479.098176 C 323.933725 480.824605 312.341687 479.552499 311.309935 479.340482 C 309.701616 478.977023 310.308529 477.31117 310.278183 475.978487 C 310.065763 468.194411 309.883689 460.410334 309.67127 452.626257 C 308.396753 403.529026 307.09189 354.462083 305.817373 305.364852 " stroke="rgb(0%, 0%, 0%)" stroke-width="0.1" stroke-opacity="1" stroke-miterlimit="10"/></g><path stroke-linecap="square" transform="matrix(0.128725, 0, 0, 0.128969, 0.121875, 0.250148)" fill-opacity="1" fill="rgb(100%, 100%, 100%)" fill-rule="nonzero" stroke-linejoin="miter" d="M 299.475132 69.41949 C 310.399565 75.174255 325.420661 76.082902 336.709243 70.206984 " stroke="rgb(0%, 0%, 0%)" stroke-width="0.1" stroke-opacity="1" stroke-miterlimit="10"/><g clip-path="url(#id7)"><path fill="rgb(100%, 100%, 100%)" d="M 41.125 8.484375 C 43.558594 8.484375 45.574219 6.871094 45.574219 4.679688 C 45.574219 2.3125 43.460938 0.773438 40.878906 0.773438 C 38.605469 0.773438 36.328125 2.820312 36.722656 4.894531 C 36.898438 5.835938 37.152344 7.023438 38.171875 7.5625 C 38.667969 7.824219 40.703125 9.019531 41.125 8.484375 " fill-opacity="1" fill-rule="nonzero"/><path stroke-linecap="square" transform="matrix(0.128725, 0, 0, 0.128969, 0.121875, 0.250148)" fill-opacity="1" fill="rgb(100%, 100%, 100%)" fill-rule="nonzero" stroke-linejoin="miter" d="M 318.532199 63.846454 C 337.437538 63.846454 353.095893 51.337413 353.095893 34.345712 C 353.095893 16.899688 337.528575 4.057476 317.985978 4.057476 C 299.566169 4.057476 283.634704 17.778047 283.998851 34.345712 C 284.393345 52.458077 300.021354 61.908007 318.532199 64.633948 " stroke="rgb(0%, 0%, 0%)" stroke-width="0.1" stroke-opacity="1" stroke-miterlimit="10"/></g><path fill="rgb(100%, 100%, 100%)" d="M 44.050781 50.324219 C 45.417969 48.832031 45.65625 46.550781 44.285156 44.976562 C 42.691406 43.144531 39.882812 42.832031 38.175781 41.121094 C 37.207031 40.144531 36.453125 39.128906 37.964844 38.191406 C 39.167969 37.449219 40.746094 37.285156 42.136719 37.03125 C 44.671875 36.566406 47.351562 36.117188 49.46875 34.726562 C 50.625 33.964844 51.527344 33.140625 52.027344 31.917969 C 52.566406 30.585938 52.109375 29.640625 51.375 28.441406 C 50.25 26.601562 46.460938 25.855469 44.308594 25.855469 C 41.867188 25.855469 39.164062 25.855469 36.738281 25.523438 C 35.257812 25.320312 33.78125 25.082031 32.289062 24.964844 C 31.0625 24.867188 29.699219 24.121094 29.34375 23.035156 C 28.296875 19.824219 33.65625 20.917969 35.496094 20.648438 C 36.386719 20.519531 38.582031 20.144531 37.265625 19.070312 C 36.511719 18.460938 34.753906 17.941406 33.742188 17.941406 C 31.097656 17.941406 28.511719 18.707031 26.863281 20.570312 C 26.082031 21.457031 25.707031 22.628906 26.113281 23.699219 C 26.609375 25.015625 27.652344 25.59375 28.996094 26.214844 C 33.992188 28.523438 40.226562 27.152344 45.511719 28.375 C 46.492188 28.601562 48.578125 29.023438 48.738281 30.132812 C 48.945312 31.570312 48.011719 32.3125 46.789062 33.144531 C 44.683594 34.582031 41.351562 34.710938 38.835938 35.179688 C 37.222656 35.480469 34.695312 36.390625 33.964844 37.832031 C 33.058594 39.621094 33.570312 41.621094 35.542969 42.734375 C 37.15625 43.648438 38.804688 44.492188 40.425781 45.390625 C 41.222656 45.832031 41.605469 46.320312 42.238281 46.878906 C 42.625 47.222656 42.203125 49.003906 42.179688 49.5 C 42.660156 49.53125 43.988281 50.371094 44.050781 50.324219 " fill-opacity="1" fill-rule="nonzero"/><path stroke-linecap="square" transform="matrix(0.128725, 0, 0, 0.128969, 0.121875, 0.250148)" fill-opacity="1" fill="rgb(100%, 100%, 100%)" fill-rule="nonzero" stroke-linejoin="miter" d="M 341.26109 388.263755 C 351.882067 376.693648 353.733151 359.005318 343.081829 346.799159 C 330.700804 332.593976 308.882283 330.170917 295.621235 316.90467 C 288.095514 309.332611 282.238804 301.457669 293.98257 294.188492 C 303.329029 288.433727 315.588671 287.161622 326.391722 285.192886 C 346.086048 281.588586 366.903163 278.105439 383.350504 267.322827 C 392.332816 261.416621 399.342661 255.025803 403.226904 245.545585 C 407.414603 235.217296 403.864162 227.887543 398.15918 218.589054 C 389.419634 204.323295 359.984355 198.538242 343.263903 198.538242 C 324.297872 198.538242 303.298684 198.538242 284.454036 195.963742 C 272.953035 194.388753 261.48238 192.541171 249.890343 191.632524 C 240.361809 190.875318 229.771178 185.090265 227.009724 176.670135 C 218.87709 151.773205 260.51132 160.253911 274.80412 158.164023 C 281.722928 157.164511 298.777182 154.25684 288.550699 145.927575 C 282.693989 141.20261 269.038447 137.174275 261.178924 137.174275 C 240.63492 137.174275 220.546101 143.110769 207.740237 157.558258 C 201.671108 164.433688 198.757925 173.520158 201.913873 181.819135 C 205.76777 192.026271 213.870058 196.50893 224.308961 201.32476 C 263.121045 219.225107 311.5527 208.593936 352.610362 218.074154 C 360.22712 219.830872 376.431696 223.102002 377.675868 231.703861 C 379.284187 242.849932 372.031577 248.604697 362.533389 255.056091 C 346.177085 266.202162 320.292247 267.201674 300.749649 270.836262 C 288.216897 273.168456 268.583262 280.225615 262.908626 291.401975 C 255.868436 305.273987 259.843715 320.781564 275.168268 329.413711 C 287.701021 336.501159 300.506884 343.043418 313.100328 350.009712 C 319.29084 353.432283 322.264714 357.218312 327.180709 361.54953 C 330.184928 364.214895 326.907598 378.026331 326.725524 381.872937 C 331.853939 382.206107 337.498229 385.901272 341.26109 389.051249 " stroke="rgb(0%, 0%, 0%)" stroke-width="0.1" stroke-opacity="1" stroke-miterlimit="10"/><path fill="rgb(100%, 100%, 100%)" d="M 41.945312 61.015625 C 42.558594 61.300781 43.347656 60.65625 43.347656 60.113281 C 43.347656 59.386719 43.226562 58.925781 42.503906 58.5 C 41.265625 57.769531 40.097656 57.234375 39.019531 56.285156 C 38.730469 56.765625 38.320312 57.386719 38.320312 57.925781 C 38.320312 58.6875 38.492188 58.882812 38.960938 59.496094 C 39.140625 59.734375 40.101562 60.050781 40.425781 60.191406 C 40.929688 60.414062 41.425781 60.710938 41.945312 61.015625 " fill-opacity="1" fill-rule="nonzero"/><path stroke-linecap="square" transform="matrix(0.128725, 0, 0, 0.128969, 0.121875, 0.250148)" fill-opacity="1" fill="rgb(100%, 100%, 100%)" fill-rule="nonzero" stroke-linejoin="miter" d="M 324.904785 471.162658 C 329.669052 473.373699 335.798873 468.37614 335.798873 464.166075 C 335.798873 458.532463 334.858158 454.958451 329.244213 451.657034 C 319.624643 445.993133 310.551294 441.843645 302.175895 434.483604 C 299.930317 438.209057 296.744024 443.024886 296.744024 447.204663 C 296.744024 453.110869 298.079232 454.625281 301.72071 459.380534 C 303.11661 461.228116 310.581639 463.681463 313.100328 464.77184 C 317.014917 466.498269 320.868814 468.800175 324.904785 471.162658 " stroke="rgb(0%, 0%, 0%)" stroke-width="0.1" stroke-opacity="1" stroke-miterlimit="10"/><path fill="rgb(100%, 100%, 100%)" d="M 33.992188 18.867188 C 34.039062 18.929688 33.945312 19.003906 34.105469 18.96875 C 34.679688 18.417969 33.207031 18.578125 33.875 18.96875 C 34.023438 19 33.957031 18.941406 33.992188 18.867188 " fill-opacity="1" fill-rule="nonzero"/><path fill="rgb(100%, 100%, 100%)" d="M 48.964844 19.070312 C 49.429688 19.125 49.371094 18.792969 49.082031 18.761719 C 48.78125 18.734375 48.535156 19.039062 48.964844 19.070312 " fill-opacity="1" fill-rule="nonzero"/><path fill="rgb(100%, 100%, 100%)" d="M 44.167969 4.78125 C 44.835938 5.769531 42.90625 7.222656 42.0625 7.558594 C 42.980469 7.445312 43.351562 7.042969 43.960938 6.507812 C 44.28125 6.226562 44.652344 4.976562 44.167969 4.78125 " fill-opacity="1" fill-rule="nonzero"/><path fill="rgb(100%, 100%, 100%)" d="M 39.488281 39.632812 C 39.429688 37.585938 39.371094 35.542969 39.308594 33.496094 C 39.304688 33.292969 39.144531 31.617188 39.34375 31.609375 C 40.484375 31.578125 41.625 31.542969 42.765625 31.511719 C 42.707031 33.492188 42.648438 35.46875 42.589844 37.449219 C 42.582031 37.792969 42.800781 39.261719 42.53125 39.53125 C 42.382812 39.671875 41.226562 39.574219 41.007812 39.582031 C 40.503906 39.597656 39.996094 39.613281 39.488281 39.632812 " fill-opacity="1" fill-rule="nonzero"/><path stroke-linecap="square" transform="matrix(0.128725, 0, 0, 0.128969, 0.121875, 0.250148)" fill-opacity="1" fill="rgb(100%, 100%, 100%)" fill-rule="nonzero" stroke-linejoin="miter" d="M 331.277372 241.577826 L 329.456633 304.547069 " stroke="rgb(0%, 0%, 0%)" stroke-width="0.1" stroke-opacity="1" stroke-miterlimit="10"/><path stroke-linecap="square" transform="matrix(0.128725, 0, 0, 0.128969, 0.121875, 0.250148)" fill-opacity="1" fill="rgb(100%, 100%, 100%)" fill-rule="nonzero" stroke-linejoin="miter" d="M 305.817373 305.364852 L 303.996634 243.183102 " stroke="rgb(0%, 0%, 0%)" stroke-width="0.1" stroke-opacity="1" stroke-miterlimit="10"/><path fill="rgb(100%, 100%, 100%)" d="M 49.082031 39.425781 C 48.257812 35.789062 43.625 35.125 40.074219 34.59375 C 38.125 34.304688 36.640625 33.910156 35.070312 32.804688 C 34.863281 32.65625 33.527344 31.003906 33.617188 30.996094 C 32.492188 31.066406 31.371094 31.132812 30.246094 31.203125 C 30.535156 32.085938 30.746094 32.792969 31.441406 33.503906 C 32.117188 34.199219 32.84375 34.710938 33.710938 35.21875 C 35.335938 36.167969 37.476562 36.632812 39.371094 36.945312 C 41.019531 37.21875 43.136719 37.332031 44.519531 38.242188 C 44.851562 38.460938 45.230469 38.621094 45.371094 38.992188 C 45.507812 39.355469 45.453125 39.527344 45.90625 39.527344 C 46.398438 39.527344 48.957031 39.738281 49.082031 39.425781 " fill-opacity="1" fill-rule="nonzero"/><path stroke-linecap="square" transform="matrix(0.128725, 0, 0, 0.128969, 0.121875, 0.250148)" fill-opacity="1" fill="rgb(100%, 100%, 100%)" fill-rule="nonzero" stroke-linejoin="miter" d="M 234.019569 240.002837 C 237.721738 251.360926 243.001881 259.811344 254.017351 267.110809 C 264.27418 273.895374 277.201426 278.378033 289.461068 281.437145 C 308.639518 286.252974 345.630863 284.859716 353.095893 304.577358 " stroke="rgb(0%, 0%, 0%)" stroke-width="0.1" stroke-opacity="1" stroke-miterlimit="10"/><path stroke-linecap="square" transform="matrix(0.128725, 0, 0, 0.128969, 0.121875, 0.250148)" fill-opacity="1" fill="rgb(100%, 100%, 100%)" fill-rule="nonzero" stroke-linejoin="miter" d="M 380.346285 303.759575 C 368.66321 252.421014 280.964287 283.648186 260.389937 238.397561 " stroke="rgb(0%, 0%, 0%)" stroke-width="0.1" stroke-opacity="1" stroke-miterlimit="10"/><path fill="rgb(100%, 100%, 100%)" d="M 42.0625 53.097656 C 42.753906 52.296875 39.859375 51.738281 39.253906 51.453125 C 38.371094 51.042969 37.046875 50.203125 36.875 49.285156 C 36.757812 48.679688 37.222656 48.691406 37.828125 48.414062 C 38.457031 48.125 39.089844 47.835938 39.722656 47.546875 C 39.285156 48.609375 40.269531 48.839844 41.21875 49.117188 C 42.222656 49.410156 43.007812 49.867188 43.933594 50.273438 C 44.660156 50.589844 45.136719 51.777344 45.105469 52.484375 C 45.070312 53.171875 44.660156 53.007812 43.953125 53.035156 C 43.320312 53.058594 42.691406 53.089844 42.0625 53.097656 " fill-opacity="1" fill-rule="nonzero"/><path stroke-linecap="square" transform="matrix(0.128725, 0, 0, 0.128969, 0.121875, 0.250148)" fill-opacity="1" fill="rgb(100%, 100%, 100%)" fill-rule="nonzero" stroke-linejoin="miter" d="M 348.544045 408.980908 C 355.098705 398.804061 341.230744 388.475772 333.09811 384.265708 C 327.059326 381.146019 321.506073 379.873913 314.921067 377.905178 C 308.518135 375.966731 305.21046 372.604737 307.638111 366.728819 " stroke="rgb(0%, 0%, 0%)" stroke-width="0.1" stroke-opacity="1" stroke-miterlimit="10"/><path stroke-linecap="square" transform="matrix(0.128725, 0, 0, 0.128969, 0.121875, 0.250148)" fill-opacity="1" fill="rgb(100%, 100%, 100%)" fill-rule="nonzero" stroke-linejoin="miter" d="M 325.815155 409.768403 C 329.638706 405.34632 317.136299 400.227608 312.645143 400.227608 C 300.779995 400.227608 286.638923 386.11329 284.909221 377.087396 " stroke="rgb(0%, 0%, 0%)" stroke-width="0.1" stroke-opacity="1" stroke-miterlimit="10"/><path fill="rgb(100%, 100%, 100%)" d="M 37.382812 54.332031 C 37.757812 56.460938 40.796875 57.785156 42.765625 58.652344 C 42.9375 58.09375 43.351562 57.855469 43.351562 57.1875 C 43.351562 56.414062 42.371094 55.980469 41.710938 55.667969 C 41.035156 55.351562 40.546875 54.804688 39.957031 54.4375 C 39.609375 54.21875 39.539062 54.242188 38.976562 54.265625 C 38.445312 54.289062 37.914062 54.3125 37.382812 54.332031 " fill-opacity="1" fill-rule="nonzero"/><path stroke-linecap="square" transform="matrix(0.128725, 0, 0, 0.128969, 0.121875, 0.250148)" fill-opacity="1" fill="rgb(100%, 100%, 100%)" fill-rule="nonzero" stroke-linejoin="miter" d="M 289.461068 419.339485 C 292.37425 435.846574 315.983165 446.114286 331.277372 452.838275 C 332.12705 450.051757 335.829219 448.234463 335.829219 445.02391 C 335.829219 439.69318 334.676084 437.482139 330.367002 433.696109 C 323.842688 427.971633 312.159613 426.82068 308.548481 418.551991 " stroke="rgb(0%, 0%, 0%)" stroke-width="0.1" stroke-opacity="1" stroke-miterlimit="10"/></g></g></g></g><g fill="rgb(100%, 100%, 100%)" fill-opacity="1"><g transform="translate(136.371075, 92.079921)"><g><path d="M 25.105469 -17.832031 C 28.339844 -18.972656 29.910156 -21.253906 29.910156 -24.25 C 29.910156 -28.53125 26.867188 -31.953125 21.445312 -32.621094 C 19.78125 -32.808594 19.019531 -32.808594 17.261719 -32.808594 L 3.804688 -32.808594 L 3.804688 0 L 16.878906 0 C 18.972656 0 20.066406 0 21.730469 -0.191406 C 26.152344 -0.714844 31.144531 -3.757812 31.144531 -9.890625 C 31.144531 -13.882812 29.242188 -16.640625 25.105469 -17.832031 Z M 12.363281 -26.152344 L 16.214844 -26.152344 C 16.976562 -26.152344 17.734375 -26.105469 18.355469 -26.011719 C 19.972656 -25.773438 20.96875 -24.867188 20.96875 -23.015625 C 20.96875 -21.066406 19.875 -20.257812 18.308594 -20.019531 C 17.6875 -19.921875 16.976562 -19.875 16.214844 -19.875 L 12.363281 -19.875 Z M 19.113281 -6.703125 C 18.496094 -6.65625 17.734375 -6.65625 16.976562 -6.65625 L 12.363281 -6.65625 L 12.363281 -13.695312 L 16.738281 -13.695312 C 17.5 -13.695312 18.257812 -13.695312 18.878906 -13.648438 C 20.636719 -13.503906 22.207031 -12.363281 22.207031 -10.175781 C 22.207031 -8.035156 20.636719 -6.800781 19.113281 -6.703125 Z M 19.113281 -6.703125 "/></g></g></g><g fill="rgb(100%, 100%, 100%)" fill-opacity="1"><g transform="translate(168.747885, 92.079921)"><g><path d="M 14.789062 -26.058594 C 6.46875 -26.058594 1.140625 -20.875 1.140625 -12.695312 C 1.140625 -4.566406 6.46875 0.664062 14.789062 0.664062 C 23.109375 0.664062 28.433594 -4.566406 28.433594 -12.695312 C 28.433594 -20.875 23.109375 -26.058594 14.789062 -26.058594 Z M 14.789062 -5.136719 C 11.746094 -5.136719 9.890625 -7.65625 9.890625 -12.695312 C 9.890625 -17.785156 11.746094 -20.257812 14.789062 -20.257812 C 17.832031 -20.257812 19.6875 -17.785156 19.6875 -12.695312 C 19.6875 -7.65625 17.832031 -5.136719 14.789062 -5.136719 Z M 14.789062 -5.136719 "/></g></g></g><g fill="rgb(100%, 100%, 100%)" fill-opacity="1"><g transform="translate(198.319656, 92.079921)"><g><path d="M 14.789062 -26.058594 C 6.46875 -26.058594 1.140625 -20.875 1.140625 -12.695312 C 1.140625 -4.566406 6.46875 0.664062 14.789062 0.664062 C 23.109375 0.664062 28.433594 -4.566406 28.433594 -12.695312 C 28.433594 -20.875 23.109375 -26.058594 14.789062 -26.058594 Z M 14.789062 -5.136719 C 11.746094 -5.136719 9.890625 -7.65625 9.890625 -12.695312 C 9.890625 -17.785156 11.746094 -20.257812 14.789062 -20.257812 C 17.832031 -20.257812 19.6875 -17.785156 19.6875 -12.695312 C 19.6875 -7.65625 17.832031 -5.136719 14.789062 -5.136719 Z M 14.789062 -5.136719 "/></g></g></g><g fill="rgb(100%, 100%, 100%)" fill-opacity="1"><g transform="translate(227.891428, 92.079921)"><g><path d="M 10.9375 -34.949219 L 2.378906 -34.949219 L 2.378906 -8.988281 C 2.378906 -7.085938 2.378906 -5.800781 2.472656 -4.46875 C 2.664062 -1.09375 4.898438 0.476562 8.84375 0.476562 C 10.746094 0.476562 12.269531 0.378906 13.835938 0.238281 L 13.835938 -5.5625 C 11.601562 -5.46875 11.175781 -5.800781 11.03125 -6.800781 C 10.9375 -7.417969 10.9375 -7.941406 10.9375 -9.128906 Z M 10.9375 -34.949219 "/></g></g></g><g fill="rgb(100%, 100%, 100%)" fill-opacity="1"><g transform="translate(242.3906, 92.079921)"><g><path d="M 20.398438 -32.621094 C 18.734375 -32.808594 17.972656 -32.808594 16.214844 -32.808594 L 3.804688 -32.808594 L 3.804688 0 L 16.214844 0 C 17.972656 0 18.734375 0 20.398438 -0.191406 C 28.007812 -1.046875 34.285156 -6.5625 34.285156 -16.832031 C 34.285156 -27.101562 28.007812 -31.761719 20.398438 -32.621094 Z M 18.117188 -6.753906 C 17.023438 -6.65625 16.261719 -6.65625 15.027344 -6.65625 L 12.363281 -6.65625 L 12.363281 -26.152344 L 15.027344 -26.152344 C 16.261719 -26.152344 17.023438 -26.152344 18.117188 -26.058594 C 22.394531 -25.675781 25.34375 -22.539062 25.34375 -16.691406 C 25.34375 -10.839844 22.394531 -7.132812 18.117188 -6.753906 Z M 18.117188 -6.753906 "/></g></g></g><g fill="rgb(100%, 100%, 100%)" fill-opacity="1"><g transform="translate(278.000343, 92.079921)"><g><path d="M 14.789062 -26.058594 C 6.46875 -26.058594 1.140625 -20.875 1.140625 -12.695312 C 1.140625 -4.566406 6.46875 0.664062 14.789062 0.664062 C 23.109375 0.664062 28.433594 -4.566406 28.433594 -12.695312 C 28.433594 -20.875 23.109375 -26.058594 14.789062 -26.058594 Z M 14.789062 -5.136719 C 11.746094 -5.136719 9.890625 -7.65625 9.890625 -12.695312 C 9.890625 -17.785156 11.746094 -20.257812 14.789062 -20.257812 C 17.832031 -20.257812 19.6875 -17.785156 19.6875 -12.695312 C 19.6875 -7.65625 17.832031 -5.136719 14.789062 -5.136719 Z M 14.789062 -5.136719 "/></g></g></g><g fill="rgb(100%, 100%, 100%)" fill-opacity="1"><g transform="translate(307.572114, 92.079921)"><g><path d="M 14.503906 -26.058594 C 7.039062 -26.058594 1.140625 -21.160156 1.140625 -12.410156 C 1.140625 -4.042969 6.65625 0.664062 13.933594 0.664062 C 20.828125 0.664062 25.914062 -2.757812 26.867188 -9.320312 L 18.449219 -9.320312 C 17.972656 -6.5625 16.355469 -5.136719 14.40625 -5.136719 C 11.507812 -5.136719 9.890625 -7.511719 9.890625 -12.933594 C 9.890625 -17.832031 11.460938 -20.257812 14.3125 -20.257812 C 16.453125 -20.257812 18.117188 -19.019531 18.496094 -15.691406 L 26.769531 -15.691406 C 26.53125 -21.398438 21.96875 -26.058594 14.503906 -26.058594 Z M 14.503906 -26.058594 "/></g></g></g><g fill="rgb(100%, 100%, 100%)" fill-opacity="1"><g transform="translate(335.479881, 92.079921)"><g><path d="M 12.839844 -19.875 L 18.449219 -19.875 L 18.449219 -25.203125 L 12.839844 -25.203125 L 12.839844 -31.761719 L 4.28125 -31.761719 L 4.28125 -25.203125 L 0.238281 -25.203125 L 0.238281 -19.875 L 4.28125 -19.875 L 4.28125 -9.273438 C 4.28125 -7.847656 4.28125 -6.65625 4.375 -5.183594 C 4.660156 -1.285156 6.5625 0.664062 12.886719 0.664062 C 14.691406 0.664062 16.261719 0.523438 17.925781 0.238281 L 17.925781 -5.085938 C 13.882812 -4.898438 13.078125 -5.46875 12.886719 -8.035156 C 12.839844 -8.703125 12.839844 -9.652344 12.839844 -10.507812 Z M 12.839844 -19.875 "/></g></g></g><g fill="rgb(100%, 100%, 100%)" fill-opacity="1"><g transform="translate(354.4971, 92.079921)"><g><path d="M 14.789062 -26.058594 C 6.46875 -26.058594 1.140625 -20.875 1.140625 -12.695312 C 1.140625 -4.566406 6.46875 0.664062 14.789062 0.664062 C 23.109375 0.664062 28.433594 -4.566406 28.433594 -12.695312 C 28.433594 -20.875 23.109375 -26.058594 14.789062 -26.058594 Z M 14.789062 -5.136719 C 11.746094 -5.136719 9.890625 -7.65625 9.890625 -12.695312 C 9.890625 -17.785156 11.746094 -20.257812 14.789062 -20.257812 C 17.832031 -20.257812 19.6875 -17.785156 19.6875 -12.695312 C 19.6875 -7.65625 17.832031 -5.136719 14.789062 -5.136719 Z M 14.789062 -5.136719 "/></g></g></g><g fill="rgb(100%, 100%, 100%)" fill-opacity="1"><g transform="translate(384.068871, 92.079921)"><g><path d="M 17.925781 -26.058594 C 16.308594 -26.058594 14.3125 -25.34375 12.933594 -23.824219 L 11.125 -20.257812 L 11.125 -25.390625 L 2.566406 -25.390625 L 2.566406 0 L 11.125 0 L 11.125 -9.320312 C 11.125 -16.976562 13.457031 -19.351562 19.875 -18.925781 L 19.875 -25.914062 C 19.257812 -26.011719 18.734375 -26.058594 17.925781 -26.058594 Z M 17.925781 -26.058594 "/></g></g></g><g fill="rgb(100%, 100%, 100%)" fill-opacity="1"><g transform="translate(404.036956, 92.079921)"><g><path d="M 13.027344 -26.058594 C 6.277344 -26.058594 1.902344 -22.917969 1.902344 -17.878906 C 1.902344 -13.550781 4.800781 -11.316406 9.652344 -10.175781 C 14.167969 -9.128906 15.785156 -8.226562 15.785156 -6.609375 C 15.785156 -5.277344 14.597656 -4.660156 13.078125 -4.660156 C 11.269531 -4.660156 9.746094 -5.945312 9.273438 -7.894531 L 0.855469 -7.894531 C 1.523438 -2.1875 6.230469 0.664062 13.125 0.664062 C 19.257812 0.664062 24.34375 -1.855469 24.34375 -7.273438 C 24.34375 -12.171875 21.066406 -14.167969 16.453125 -15.3125 C 11.601562 -16.5 10.460938 -17.449219 10.460938 -18.878906 C 10.460938 -19.972656 11.316406 -20.730469 12.503906 -20.730469 C 14.027344 -20.730469 14.882812 -19.734375 15.261719 -17.972656 L 23.679688 -17.972656 C 23.015625 -22.585938 19.351562 -26.058594 13.027344 -26.058594 Z M 13.027344 -26.058594 "/></g></g></g></svg>